<?xml version="1.0" encoding="UTF-8"?>
<!DOCTYPE svg PUBLIC "-//W3C//DTD SVG 1.1//EN" "http://www.w3.org/Graphics/SVG/1.1/DTD/svg11.dtd">
<svg xmlns="http://www.w3.org/2000/svg" version="1.1" width="500px" height="500px" style="shape-rendering:geometricPrecision; text-rendering:geometricPrecision; image-rendering:optimizeQuality; fill-rule:evenodd; clip-rule:evenodd" xmlns:xlink="http://www.w3.org/1999/xlink">
<g><path style="opacity:0.984" fill="#390ba3" d="M 115.5,17.5 C 117.792,17.2436 119.959,17.5769 122,18.5C 133.089,70.5885 164.589,102.422 216.5,114C 219.917,116.321 220.25,118.988 217.5,122C 165.667,133.833 133.833,165.667 122,217.5C 118.988,220.25 116.321,219.917 114,216.5C 102.422,164.589 70.5885,133.089 18.5,122C 16.7253,118.606 17.392,115.94 20.5,114C 72.1377,101.529 103.804,69.3621 115.5,17.5 Z M 117.5,79.5 C 128.633,94.4632 141.966,107.297 157.5,118C 142.333,129.167 129.167,142.333 118,157.5C 107.688,142.022 94.855,129.022 79.5,118.5C 94.2008,107.466 106.867,94.4661 117.5,79.5 Z"/></g>
<g><path style="opacity:0.986" fill="#390ba3" d="M 321.5,103.5 C 324.602,103.154 327.435,103.821 330,105.5C 348.649,192.149 401.315,244.815 488,263.5C 490.223,267.388 489.723,270.888 486.5,274C 415.959,287.882 367.126,328.049 340,394.5C 336.063,405.583 333.063,416.917 331,428.5C 326.667,435.167 322.333,435.167 318,428.5C 307.095,371.808 277.262,328.308 228.5,298C 207.824,286.44 185.824,278.44 162.5,274C 158.269,269.522 158.602,265.522 163.5,262C 232.375,248.109 280.542,208.943 308,144.5C 312.554,132.837 315.888,120.837 318,108.5C 318.257,106.093 319.424,104.427 321.5,103.5 Z M 323.5,172.5 C 336.095,195.112 351.761,215.612 370.5,234C 385.523,247.68 402.19,259.013 420.5,268C 378.693,289.974 346.693,321.807 324.5,363.5C 302.307,321.807 270.307,289.974 228.5,268C 271.071,246.929 302.738,215.096 323.5,172.5 Z"/></g>
<g><path style="opacity:0.984" fill="#3a0ba3" d="M 147.5,341.5 C 149.144,341.286 150.644,341.62 152,342.5C 159.397,374.897 179.23,395.064 211.5,403C 213.658,404.312 213.991,405.978 212.5,408C 179.631,415.536 159.464,435.702 152,468.5C 150.333,469.833 148.667,469.833 147,468.5C 139.536,435.702 119.369,415.536 86.5,408C 85.0091,405.978 85.3424,404.312 87.5,403C 120.164,394.836 140.164,374.336 147.5,341.5 Z M 148.5,396.5 C 151.768,399.427 155.101,402.427 158.5,405.5C 155.833,408.833 152.833,411.833 149.5,414.5C 146.167,411.833 143.167,408.833 140.5,405.5C 143.874,403.126 146.541,400.126 148.5,396.5 Z"/></g>
</svg>
