<?xml version="1.0" encoding="UTF-8"?>
<!DOCTYPE svg PUBLIC "-//W3C//DTD SVG 1.1//EN" "http://www.w3.org/Graphics/SVG/1.1/DTD/svg11.dtd">
<svg xmlns="http://www.w3.org/2000/svg" version="1.1" width="500px" height="500px" style="shape-rendering:geometricPrecision; text-rendering:geometricPrecision; image-rendering:optimizeQuality; fill-rule:evenodd; clip-rule:evenodd" xmlns:xlink="http://www.w3.org/1999/xlink">
<g><path style="opacity:0.992" fill="#00b4d8" d="M 310.5,20.5 C 323.328,29.1059 331.495,41.1059 335,56.5C 336.572,65.154 336.905,73.8207 336,82.5C 365.645,109.08 373.645,141.08 360,178.5C 345.896,205.26 324.396,223.426 295.5,233C 251.425,246.652 210.092,240.985 171.5,216C 134.228,187.519 124.728,151.686 143,108.5C 149.225,97.0742 157.558,87.4075 168,79.5C 164.555,57.1691 170.722,38.0025 186.5,22C 194.025,22.3466 200.192,25.5133 205,31.5C 211.091,39.6826 215.591,48.6826 218.5,58.5C 240.697,51.8443 262.864,51.8443 285,58.5C 285.939,51.3514 288.272,44.6848 292,38.5C 297.4,31.5983 303.567,25.5983 310.5,20.5 Z"/></g>
<g><path style="opacity:0.966" fill="#00b4d7" d="M 63.5,133.5 C 80.1667,133.5 96.8333,133.5 113.5,133.5C 113.5,144.167 113.5,154.833 113.5,165.5C 96.8614,164.559 80.1948,164.225 63.5,164.5C 63.5,154.167 63.5,143.833 63.5,133.5 Z"/></g>
<g><path style="opacity:0.974" fill="#00b4d7" d="M 387.5,133.5 C 403.5,133.5 419.5,133.5 435.5,133.5C 435.5,143.833 435.5,154.167 435.5,164.5C 419.5,164.5 403.5,164.5 387.5,164.5C 387.5,154.167 387.5,143.833 387.5,133.5 Z"/></g>
<g><path style="opacity:0.985" fill="#00b3d8" d="M 174.5,258.5 C 217.789,281.889 262.456,284.723 308.5,267C 314.094,264.287 319.594,261.453 325,258.5C 337.343,272.826 344.676,289.492 347,308.5C 347.5,365.166 347.667,421.832 347.5,478.5C 332.167,478.5 316.833,478.5 301.5,478.5C 301.5,448.5 301.5,418.5 301.5,388.5C 291.5,388.5 281.5,388.5 271.5,388.5C 271.5,418.5 271.5,448.5 271.5,478.5C 256.5,478.5 241.5,478.5 226.5,478.5C 226.5,448.5 226.5,418.5 226.5,388.5C 216.5,388.5 206.5,388.5 196.5,388.5C 196.5,418.5 196.5,448.5 196.5,478.5C 181.833,478.5 167.167,478.5 152.5,478.5C 152.333,422.499 152.5,366.499 153,310.5C 155.013,290.941 162.18,273.608 174.5,258.5 Z"/></g>
<g><path style="opacity:0.959" fill="#00b3d7" d="M 64.5,290.5 C 75.1667,290.5 85.8333,290.5 96.5,290.5C 96.5,342.5 96.5,394.5 96.5,446.5C 107.5,446.5 118.5,446.5 129.5,446.5C 129.5,457.167 129.5,467.833 129.5,478.5C 115.108,478.93 100.774,478.43 86.5,477C 73.8208,472.653 66.6541,463.819 65,450.5C 64.5,397.168 64.3333,343.834 64.5,290.5 Z"/></g>
</svg>
